[h264 @ 0x55d867e9eb40] Reinit context to 848x480, pix_fmt: yuv420p
Input #0, mov,mp4,m4a,3gp,3g2,mj2, from '/var/www/html/project/media/video/original/1000120126.mp4':
  Metadata:
    major_brand     : isom
    minor_version   : 512
    compatible_brands: isomiso2avc1mp41
    creation_time   : 2025-10-21T09:21:49.000000Z
    date            : UTC 2025-10-21 09:23:41
    encoder         : Lavf58.76.100
  Duration: 00:00:09.50, start: 0.000000, bitrate: 2768 kb/s
    Stream #0:0(und): Video: h264 (High), 1 reference frame (avc1 / 0x31637661), yuv420p(tv, bt470bg/bt470bg/smpte170m, left), 848x480, 2649 kb/s, SAR 1:1 DAR 53:30, 30 fps, 30 tbr, 90k tbn, 180k tbc (default)
    Metadata:
      creation_time   : 2025-10-21T09:21:49.000000Z
      handler_name    : VideoHandler
    Stream #0:1(und): Audio: aac (LC) (mp4a / 0x6134706D), 44100 Hz, stereo, fltp, 128 kb/s (default)
    Metadata:
      creation_time   : 2025-10-21T09:21:49.000000Z
      handler_name    : SoundHandler
Input #1, png_pipe, from '/var/www/html/project/static/images/templates/logo.png':
  Duration: N/A, bitrate: N/A
    Stream #1:0: Video: png, 1 reference frame, rgba(pc), 1920x1080 [SAR 2835:2835 DAR 16:9], 25 tbr, 25 tbn, 25 tbc
[h264 @ 0x55d867ecd540] Reinit context to 1280x720, pix_fmt: yuv420p
Input #2, mov,mp4,m4a,3gp,3g2,mj2, from '/var/www/html/project/static/images/templates/Codino.mp4':
  Metadata:
    major_brand     : mp42
    minor_version   : 1
    compatible_brands: isommp41mp42
    creation_time   : 2021-07-11T07:02:58.000000Z
  Duration: 00:00:02.00, start: 0.000000, bitrate: 1007 kb/s
    Stream #2:0(ita): Audio: aac (LC) (mp4a / 0x6134706D), 44100 Hz, stereo, fltp, 102 kb/s (default)
    Metadata:
      creation_time   : 2021-07-11T07:02:58.000000Z
      handler_name    : Core Media Audio
    Stream #2:1(und): Video: h264 (High), 1 reference frame (avc1 / 0x31637661), yuv420p(tv, bt709, progressive, left), 1280x720 [SAR 1:1 DAR 16:9], 813 kb/s, 25 fps, 25 tbr, 25k tbn, 50k tbc (default)
    Metadata:
      creation_time   : 2021-07-11T07:02:58.000000Z
      handler_name    : Core Media Video
[Parsed_scale_0 @ 0x55d867ed71c0] w:1280 h:720 flags:'bilinear' interl:0
[Parsed_scale_2 @ 0x55d867ed86c0] w:1280 h:720 flags:'bilinear' interl:0
[Parsed_scale_4 @ 0x55d867f9b1c0] w:1280 h:720 flags:'bilinear' interl:0
Stream mapping:
  Stream #0:0 (h264) -> scale
  Stream #0:1 (aac) -> concat:in0:a0
  Stream #1:0 (png) -> scale
  Stream #2:0 (aac) -> concat:in1:a0
  Stream #2:1 (h264) -> scale
  concat:out:v0 -> Stream #0:0 (libx264)
  concat:out:a0 -> Stream #0:1 (aac)
Press [q] to stop, [?] for help
[h264 @ 0x55d867edf700] Reinit context to 848x480, pix_fmt: yuv420p
[h264 @ 0x55d86833d7c0] Reinit context to 1280x720, pix_fmt: yuv420p
[Parsed_scale_0 @ 0x55d868e87dc0] w:1280 h:720 flags:'bilinear' interl:0
[Parsed_scale_2 @ 0x55d868e8c740] w:1280 h:720 flags:'bilinear' interl:0
[Parsed_scale_4 @ 0x55d868e91440] w:1280 h:720 flags:'bilinear' interl:0
[graph 0 input from stream 0:0 @ 0x55d868e95c40] w:848 h:480 pixfmt:yuv420p tb:1/90000 fr:30/1 sar:1/1 sws_param:flags=2
[graph 0 input from stream 1:0 @ 0x55d868e96cc0] w:1920 h:1080 pixfmt:rgba tb:1/25 fr:25/1 sar:2835/2835 sws_param:flags=2
[graph 0 input from stream 2:1 @ 0x55d868e97d40] w:1280 h:720 pixfmt:yuv420p tb:1/25000 fr:25/1 sar:1/1 sws_param:flags=2
[graph_0_in_0_1 @ 0x55d868e98cc0] tb:1/44100 samplefmt:fltp samplerate:44100 chlayout:0x3
[graph_0_in_2_0 @ 0x55d868e99e00] tb:1/44100 samplefmt:fltp samplerate:44100 chlayout:0x3
[Parsed_scale_0 @ 0x55d868e87dc0] w:848 h:480 fmt:yuv420p sar:1/1 -> w:1280 h:720 fmt:yuv420p sar:159/160 flags:0x2
[Parsed_setsar_1 @ 0x55d868e8fd00] w:1280 h:720 sar:159/160 dar:53/30 -> sar:1/1 dar:16/9
[Parsed_scale_2 @ 0x55d868e8c740] w:1920 h:1080 fmt:rgba sar:2835/2835 -> w:1280 h:720 fmt:yuva420p sar:1/1 flags:0x2
[Parsed_setsar_3 @ 0x55d868e90980] w:1280 h:720 sar:1/1 dar:16/9 -> sar:1/1 dar:16/9
[Parsed_overlay_6 @ 0x55d868e92b80] main w:1280 h:720 fmt:yuv420p overlay w:1280 h:720 fmt:yuva420p
[Parsed_overlay_6 @ 0x55d868e92b80] [framesync @ 0x55d868e92ce8] Selected 1/90000 time base
[Parsed_overlay_6 @ 0x55d868e92b80] [framesync @ 0x55d868e92ce8] Sync level 2
[Parsed_scale_4 @ 0x55d868e91440] w:1280 h:720 fmt:yuv420p sar:1/1 -> w:1280 h:720 fmt:yuv420p sar:1/1 flags:0x2
[Parsed_setsar_5 @ 0x55d868e91f80] w:1280 h:720 sar:1/1 dar:16/9 -> sar:1/1 dar:16/9
[libx264 @ 0x55d867f9ac80] using SAR=1/1
[libx264 @ 0x55d867f9ac80] using cpu capabilities: MMX2 SSE2Fast SSSE3 SSE4.2 AVX FMA3 BMI2 AVX2
[libx264 @ 0x55d867f9ac80] profile High, level 3.1
[libx264 @ 0x55d867f9ac80] 264 - core 155 r2917 0a84d98 - H.264/MPEG-4 AVC codec - Copyleft 2003-2018 - http://www.videolan.org/x264.html - options: cabac=1 ref=1 deblock=1:0:0 analyse=0x3:0x113 me=hex subme=2 psy=1 psy_rd=1.00:0.00 mixed_ref=0 me_range=16 chroma_me=1 trellis=0 8x8dct=1 cqm=0 deadzone=21,11 fast_pskip=1 chroma_qp_offset=0 threads=22 lookahead_threads=5 sliced_threads=0 nr=0 decimate=1 interlaced=0 bluray_compat=0 constrained_intra=0 bframes=3 b_pyramid=2 b_adapt=1 b_bias=0 direct=1 weightb=1 open_gop=0 weightp=1 keyint=250 keyint_min=25 scenecut=40 intra_refresh=0 rc_lookahead=10 rc=crf mbtree=1 crf=18.0 qcomp=0.60 qpmin=0 qpmax=69 qpstep=4 ip_ratio=1.40 aq=1:1.00
Output #0, mp4, to '/var/www/html/project/media/video/watermarks/1000120126.mp4':
  Metadata:
    major_brand     : isom
    minor_version   : 512
    compatible_brands: isomiso2avc1mp41
    date            : UTC 2025-10-21 09:23:41
    encoder         : Lavf58.29.100
    Stream #0:0: Video: h264 (libx264), 1 reference frame (avc1 / 0x31637661), yuv420p(progressive), 1280x720 [SAR 1:1 DAR 16:9], q=-1--1, 30 fps, 15360 tbn, 30 tbc (default)
    Metadata:
      encoder         : Lavc58.54.100 libx264
    Side data:
      cpb: bitrate max/min/avg: 0/0/0 buffer size: 0 vbv_delay: -1
    Stream #0:1: Audio: aac (LC) (mp4a / 0x6134706D), 44100 Hz, stereo, fltp, delay 1024, 128 kb/s (default)
    Metadata:
      encoder         : Lavc58.54.100 aac
[Parsed_overlay_6 @ 0x55d868e92b80] [framesync @ 0x55d868e92ce8] Sync level 0
[Parsed_concat_7 @ 0x55d868e93cc0] EOF on in0:v0, 1 streams left in segment.
[Parsed_concat_7 @ 0x55d868e93cc0] EOF on in0:a0, 0 streams left in segment.
[Parsed_concat_7 @ 0x55d868e93cc0] Segment finished at pts=9496961
[Parsed_concat_7 @ 0x55d868e93cc0] EOF on in1:a0, 1 streams left in segment.
[Parsed_concat_7 @ 0x55d868e93cc0] EOF on in1:v0, 0 streams left in segment.
[Parsed_concat_7 @ 0x55d868e93cc0] Segment finished at pts=11515646
No more output streams to write to, finishing.
frame=  333 fps=185 q=-1.0 Lsize=    5320kB time=00:00:11.51 bitrate=3784.0kbits/s speed= 6.4x    
[AVIOContext @ 0x55d867e9cec0] Statistics: 0 seeks, 4 writeouts
video:5129kB audio:177kB subtitle:0kB other streams:0kB global headers:0kB muxing overhead: 0.251235%
Input file #0 (/var/www/html/project/media/video/original/1000120126.mp4):
  Input stream #0:0 (video): 283 packets read (3124672 bytes); 283 frames decoded; 
  Input stream #0:1 (audio): 409 packets read (152442 bytes); 409 frames decoded (418816 samples); 
  Total: 692 packets (3277114 bytes) demuxed
Input file #1 (/var/www/html/project/static/images/templates/logo.png):
  Input stream #1:0 (video): 1 packets read (111578 bytes); 1 frames decoded; 
  Total: 1 packets (111578 bytes) demuxed
Input file #2 (/var/www/html/project/static/images/templates/Codino.mp4):
  Input stream #2:0 (audio): 89 packets read (26579 bytes); 87 frames decoded (89024 samples); 
  Input stream #2:1 (video): 50 packets read (203365 bytes); 50 frames decoded; 
  Total: 139 packets (229944 bytes) demuxed
Output file #0 (/var/www/html/project/media/video/watermarks/1000120126.mp4):
  Output stream #0:0 (video): 333 frames encoded; 333 packets muxed (5252464 bytes); 
  Output stream #0:1 (audio): 496 frames encoded (507840 samples); 497 packets muxed (181482 bytes); 
  Total: 830 packets (5433946 bytes) muxed
[AVIOContext @ 0x55d867f9b2c0] Statistics: 2 seeks, 24 writeouts
[libx264 @ 0x55d867f9ac80] frame I:2     Avg QP:17.36  size:136687
[libx264 @ 0x55d867f9ac80] frame P:98    Avg QP:17.20  size: 34981
[libx264 @ 0x55d867f9ac80] frame B:233   Avg QP:22.29  size:  6654
[libx264 @ 0x55d867f9ac80] consecutive B-frames:  5.1%  4.2%  1.8% 88.9%
[libx264 @ 0x55d867f9ac80] mb I  I16..4:  3.3%  9.0% 87.7%
[libx264 @ 0x55d867f9ac80] mb P  I16..4:  2.5%  2.8%  2.7%  P16..4: 30.3% 18.0% 15.8%  0.0%  0.0%    skip:27.9%
[libx264 @ 0x55d867f9ac80] mb B  I16..4:  0.2%  0.1%  0.0%  B16..8: 19.4%  8.5%  1.6%  direct:12.0%  skip:58.2%  L0:32.0% L1:41.3% BI:26.7%
[libx264 @ 0x55d867f9ac80] 8x8 transform intra:29.9% inter:35.5%
[libx264 @ 0x55d867f9ac80] coded y,uvDC,uvAC intra: 64.8% 39.0% 13.1% inter: 19.9% 9.8% 0.8%
[libx264 @ 0x55d867f9ac80] i16 v,h,dc,p: 47% 36% 11%  6%
[libx264 @ 0x55d867f9ac80] i8 v,h,dc,ddl,ddr,vr,hd,vl,hu: 13% 48% 16%  3%  3%  3%  6%  3%  6%
[libx264 @ 0x55d867f9ac80] i4 v,h,dc,ddl,ddr,vr,hd,vl,hu: 16% 29% 11%  6%  8%  6%  9%  6% 10%
[libx264 @ 0x55d867f9ac80] i8c dc,h,v,p: 64% 21% 11%  4%
[libx264 @ 0x55d867f9ac80] Weighted P-Frames: Y:14.3% UV:1.0%
[libx264 @ 0x55d867f9ac80] kb/s:3653.41
[aac @ 0x55d867ed9280] Qavg: 4628.486
[AVIOContext @ 0x55d867ea5e40] Statistics: 3328720 bytes read, 2 seeks
[AVIOContext @ 0x55d867eb1b80] Statistics: 111578 bytes read, 0 seeks
[AVIOContext @ 0x55d867eb1240] Statistics: 1530915 bytes read, 42 seeks
